# xmcd CD database file
#
# Track frame offsets:
#	182
#	9920
#	21832
#	30685
#	42632
#	54300
#	66785
#	77375
#	91942
#	102890
#	113477
#	124227
#	136617
#	146465
#	159170
#	168115
#	182205
#	195897
#	207595
#	218835
#
# Disc length: 3064 seconds
#
# Revision: 1
# Processed by: cddbd v1.5.2PL0 Copyright (c) Steve Scherf et al.
# Submitted via: jetAudio 7
#
DISCID=fa0bf614
DTITLE=Floyd Cramer - A Taste Of Honey
DYEAR=1900
DGENRE=Country
TTITLE0=On The Rebound
TTITLE1=Try To Remember
TTITLE2=The Swingin' Shepherd Blues
TTITLE3=Cast Your Fate To The Wind
TTITLE4=Top Of The World
TTITLE5=Sweet Dreams
TTITLE6=Music To Watch Girls By
TTITLE7=A Taste Of Honey
TTITLE8=Strangers In The Night
TTITLE9=Yesterday
TTITLE10=Midnight Cowboy
TTITLE11=I Saw The Light
TTITLE12=Smile
TTITLE13=Tuxedo Junction
TTITLE14=Hot Pepper
TTITLE15=Maple Leaf Rag
TTITLE16=Night Train
TTITLE17=Don't It Make My Brown Eyes Blue
TTITLE18=Last Date
TTITLE19=Take Me Home, Country Roads
EXTD=
EXTT0=
EXTT1=
EXTT2=
EXTT3=
EXTT4=
EXTT5=
EXTT6=
EXTT7=
EXTT8=
EXTT9=
EXTT10=
EXTT11=
EXTT12=
EXTT13=
EXTT14=
EXTT15=
EXTT16=
EXTT17=
EXTT18=
EXTT19=
PLAYORDER=
